M48
METRIC,LZ,000.000
;FILE_FORMAT=3:3
;TYPE=PLATED
;Layer: PTH_Through
;EasyEDA v6.5.22, 2023-03-10 16:28:45
;028e3914a6f949ed9ca799ef75e4ed4f,10
;Gerber Generator version 0.2
;Holesize 1 = 0.800 mm
T01C0.800
;Holesize 2 = 0.889 mm
T02C0.889
;Holesize 3 = 1.000 mm
T03C1.000
;Holesize 4 = 1.001 mm
T04C1.001
;Holesize 5 = 1.101 mm
T05C1.101
;Holesize 6 = 1.199 mm
T06C1.199
;Holesize 7 = 1.501 mm
T07C1.501
;Holesize 8 = 2.500 mm
T08C2.500
%
G05
G90
T01
X017526Y059817
X014986Y059817
T02
X051562Y057404
X054102Y057404
T03
X045593Y049657
X045593Y052197
X045593Y054737
X045593Y057277
X045593Y059817
X045593Y062357
X045593Y064897
X045593Y067437
X045593Y069977
X045593Y072517
X041783Y042799
X029083Y042799
X031623Y042799
X034163Y042799
X036703Y042799
X039243Y042799
X025273Y049657G85X025273Y049657
X025273Y072517
X025273Y069977
X025273Y067437
X025273Y064897
X025273Y062357
X025273Y059817
X025273Y057277
X025273Y054737
X025273Y052197
X025273Y049657
T04
X073533Y066675
X063373Y066675
T05
X041910Y036195
X039370Y036195
X036830Y036195
X034290Y036195
X031750Y036195
X029210Y036195
T06
X017170Y034417
X020676Y034417
X070002Y034417
X073508Y034417
T07
X067341Y059531G85X067341Y059531
X061341Y057531G85X061341Y057531
X061341Y045331G85X061341Y045331
X073341Y045331G85X073341Y045331
X073341Y057531G85X073341Y057531
T08
X045593Y076327
X045593Y043307
X025273Y043307
X025273Y076327
M30
