G04 Layer: TopLayer*
G04 EasyEDA v6.5.22, 2023-03-10 16:28:45*
G04 028e3914a6f949ed9ca799ef75e4ed4f,10*
G04 Gerber Generator version 0.2*
G04 Scale: 100 percent, Rotated: No, Reflected: No *
G04 Dimensions in millimeters *
G04 leading zeros omitted , absolute positions ,4 integer and 5 decimal *
%FSLAX45Y45*%
%MOMM*%

%ADD10R,1.7000X1.7000*%
%ADD11C,1.7000*%
%ADD12C,1.8000*%
%ADD13R,1.8000X1.8000*%
%ADD14R,1.6510X1.6510*%
%ADD15C,1.6510*%
%ADD16C,1.9812*%
%ADD17R,2.0320X2.0320*%
%ADD18C,2.0320*%
%ADD19C,2.2499*%
%ADD20C,3.5052*%
%ADD21C,1.7780*%

%LPD*%
D10*
G01*
X4191000Y3619500D03*
D11*
G01*
X3937000Y3619500D03*
G01*
X3683000Y3619500D03*
G01*
X3429000Y3619500D03*
G01*
X3175000Y3619500D03*
G01*
X2921000Y3619500D03*
D12*
G01*
X1752600Y5981700D03*
D13*
G01*
X1498600Y5981700D03*
D14*
G01*
X5156200Y5740400D03*
D15*
G01*
X5410200Y5740400D03*
D16*
G01*
X7353300Y6667500D03*
G01*
X6337300Y6667500D03*
D17*
G01*
X1717039Y3441700D03*
D18*
G01*
X2067559Y3441700D03*
D17*
G01*
X7000240Y3441700D03*
D18*
G01*
X7350759Y3441700D03*
D19*
G01*
X6734098Y5953099D03*
G01*
X6134100Y5753100D03*
G01*
X6134100Y4533112D03*
G01*
X7334097Y4533112D03*
G01*
X7334097Y5753100D03*
D20*
G01*
X4559300Y7632700D03*
D21*
G01*
X4559300Y4965700D03*
G01*
X4559300Y5219700D03*
G01*
X4559300Y5473700D03*
G01*
X4559300Y5727700D03*
G01*
X4559300Y5981700D03*
G01*
X4559300Y6235700D03*
G01*
X4559300Y6489700D03*
G01*
X4559300Y6743700D03*
G01*
X4559300Y6997700D03*
G01*
X4559300Y7251700D03*
D20*
G01*
X4559300Y4330700D03*
D21*
G01*
X4178300Y4279900D03*
G01*
X2908300Y4279900D03*
G01*
X3162300Y4279900D03*
G01*
X3416300Y4279900D03*
G01*
X3670300Y4279900D03*
G01*
X3924300Y4279900D03*
D20*
G01*
X2527300Y4330700D03*
D21*
G01*
X2527300Y4965700D03*
G01*
X2527300Y7251700D03*
G01*
X2527300Y6997700D03*
G01*
X2527300Y6743700D03*
G01*
X2527300Y6489700D03*
G01*
X2527300Y6235700D03*
G01*
X2527300Y5981700D03*
G01*
X2527300Y5727700D03*
G01*
X2527300Y5473700D03*
G01*
X2527300Y5219700D03*
G01*
X2527300Y4965700D03*
D20*
G01*
X2527300Y7632700D03*
M02*
